# File created by Blade
# Date/Time:  Wed Jan 21 19:09:01 2015
#---------------------------------------------------------
:version 1.10
:name HOM
:units
  mass 1.0
  length 1.000000
  angle deg
:documentation
     Acclaim Skeleton File
:root
   axis xyz
   order TX TY TZ RX RY RZ
   position 0.000000 0.000000 0.000000
   orientation 0 0 0
:bonedata
   begin
      id 1
      name RightUpLeg_dum
      direction -1.000000 0.000000 0.000000
      length 3.693983
      axis 0.0 0.0 0.0 xyz
   end
   begin
      id 2
      name LeftUpLeg_dum
      direction 1.000000 0.000000 0.000000
      length 3.693983
      axis 0.0 0.0 0.0 xyz
   end
   begin
      id 3
      name Spine_dum
      direction 0.000000 1.000000 0.000000
      length 2.392956
      axis 0.0 0.0 0.0 xyz
   end
   begin
      id 4
      name RightUpLeg
      direction 0.000000 -1.000000 0.000000
      length 15.795667
      axis 0.0 0.0 0.0 xyz
      dof rx ry rz
   end
   begin
      id 5
      name RightLeg
      direction 0.000000 -1.000000 0.000000
      length 14.766989
      axis 0.0 0.0 0.0 xyz
      dof rx ry rz
   end
   begin
      id 6
      name RightFoot
      direction 0.000000 -0.258819 0.965926
      length 4.962790
      axis 15.0 0.0 0.0 xyz
      dof rx ry rz
   end
   begin
      id 7
      name RightToeBase
      direction 0.000000 0.000000 1.000000
      length 2.952750
      axis 0.0 0.0 0.0 xyz
      dof rx ry rz
   end
   begin
      id 8
      name LeftUpLeg
      direction 0.000000 -1.000000 0.000000
      length 15.795667
      axis 0.0 0.0 0.0 xyz
      dof rx ry rz
   end
   begin
      id 9
      name LeftLeg
      direction 0.000000 -1.000000 0.000000
      length 14.766989
      axis 0.0 0.0 0.0 xyz
      dof rx ry rz
   end
   begin
      id 10
      name LeftFoot
      direction 0.000000 -0.258819 0.965926
      length 4.962790
      axis 15.0 0.0 0.0 xyz
      dof rx ry rz
   end
   begin
      id 11
      name LeftToeBase
      direction 0.000000 0.000000 1.000000
      length 2.952750
      axis 0.0 0.0 0.0 xyz
      dof rx ry rz
   end
   begin
      id 12
      name Spine
      direction 0.000000 1.000000 0.000000
      length 0.000000
      axis 0.0 0.0 0.0 xyz
      dof rx ry rz
   end
   begin
      id 13
      name Spine_dum1
      direction 0.000000 1.000000 0.000000
      length 13.207411
      axis 0.0 0.0 0.0 xyz
   end
   begin
      id 14
      name Spine_dum2
      direction 0.000000 1.000000 0.000000
      length 13.207411
      axis 0.0 0.0 0.0 xyz
   end
   begin
      id 15
      name Spine_dum3
      direction 0.000000 1.000000 0.000000
      length 19.250100
      axis 0.0 0.0 0.0 xyz
   end
   begin
      id 16
      name RightShoulder
      direction -1.000000 0.000000 0.000000
      length 8.140465
      axis 0.0 0.0 90.0 xyz
      dof rx ry rz
   end
   begin
      id 17
      name RightArm
      direction -1.000000 0.000000 0.000000
      length 10.649840
      axis 0.0 0.0 90.0 xyz
      dof rx ry rz
   end
   begin
      id 18
      name RightForeArm
      direction -1.000000 0.000000 0.000000
      length 8.304624
      axis 0.0 0.0 90.0 xyz
      dof ry rz rx
   end
   begin
      id 19
      name RightHand
      direction -1.000000 0.000000 0.000000
      length 0.000000
      axis 0.0 0.0 90.0 xyz
      dof rx ry rz
   end
   begin
      id 20
      name RightHand_dum1
      direction -1.000000 0.000000 0.000000
      length 3.937000
      axis 0.0 0.0 90.0 xyz
   end
   begin
      id 21
      name RightHand_dum2
      direction 0.000000 0.000000 0.000000
      length 0.000000
      axis 0.0 0.0 90.0 xyz
   end
   begin
      id 22
      name RightHandThumb1
      direction 0.000000 0.000000 1.000000
      length 3.937000
      axis 0.0 0.0 90.0 xyz
      dof rx rz ry
   end
   begin
      id 23
      name LeftShoulder
      direction 1.000000 0.000000 0.000000
      length 8.140465
      axis 0.0 0.0 -90.0 xyz
      dof rx ry rz
   end
   begin
      id 24
      name LeftArm
      direction 1.000000 0.000000 0.000000
      length 10.649840
      axis 0.0 0.0 -90.0 xyz
      dof rx ry rz
   end
   begin
      id 25
      name LeftForeArm
      direction 1.000000 0.000000 0.000000
      length 8.304624
      axis 0.0 0.0 -90.0 xyz
      dof ry rz rx
   end
   begin
      id 26
      name LeftHand
      direction 1.000000 0.000000 0.000000
      length 0.000000
      axis 0.0 0.0 -90.0 xyz
      dof rx ry rz
   end
   begin
      id 27
      name LeftHand_dum1
      direction 1.000000 0.000000 0.000000
      length 3.937000
      axis 0.0 0.0 -90.0 xyz
   end
   begin
      id 28
      name LeftHand_dum2
      direction 0.000000 0.000000 0.000000
      length 0.000000
      axis 0.0 0.0 -90.0 xyz
   end
   begin
      id 29
      name LeftHandThumb1
      direction 0.000000 0.000000 1.000000
      length 3.937000
      axis 0.0 0.0 -90.0 xyz
      dof rx rz ry
   end
   begin
      id 30
      name Head
      direction 0.000000 1.000000 0.000000
      length 4.527550
      axis 0.0 0.0 0.0 xyz
      dof rx ry rz
   end
:hierarchy
   begin
      root RightUpLeg_dum LeftUpLeg_dum Spine_dum
      RightUpLeg_dum RightUpLeg
      LeftUpLeg_dum LeftUpLeg
      Spine_dum Spine
      RightUpLeg RightLeg
      RightLeg RightFoot
      RightFoot RightToeBase
      LeftUpLeg LeftLeg
      LeftLeg LeftFoot
      LeftFoot LeftToeBase
      Spine Spine_dum1 Spine_dum2 Spine_dum3
      Spine_dum1 RightShoulder
      Spine_dum2 LeftShoulder
      Spine_dum3 Head
      RightShoulder RightArm
      RightArm RightForeArm
      RightForeArm RightHand
      RightHand RightHand_dum1 RightHand_dum2
      RightHand_dum2 RightHandThumb1
      LeftShoulder LeftArm
      LeftArm LeftForeArm
      LeftForeArm LeftHand
      LeftHand LeftHand_dum1 LeftHand_dum2
      LeftHand_dum2 LeftHandThumb1
   end

# File created by Blade
# Date/Time:  Wed Jan 21 19:08:52 2015
# Frame Rate: 120.000 fps
#------------------------------------------------------
:FULLY-SPECIFIED
:DEGREES
1971
root -1.807273 31.633712 -10.854594 54.214714 -17.637278 6.975729
RightUpLeg -49.861254 6.606434 8.147127
RightLeg -6.507068 -0.000000 0.000000
RightFoot -5.474808 4.182068 9.555177
RightToeBase 20.220337 -0.000000 -0.000000
LeftUpLeg -64.247427 -10.941952 -6.008167
LeftLeg 4.305604 -0.000000 -0.000000
LeftFoot -5.850507 7.311750 -3.859432
LeftToeBase 8.398448 -0.000000 -0.000000
Spine -33.542997 -26.817749 -28.624381
RightShoulder -26.133314 22.849469 -80.306438
RightArm 2.109149 -15.648835 1.013978
RightForeArm 30.228505 -0.000000 -3.673438
RightHand 14.693343 -0.000000 0.232339
RightHandThumb1 -24.326973 -0.000000 -32.862282
LeftShoulder -7.080280 5.809813 -0.709271
LeftArm 23.170948 25.729354 -64.626138
LeftForeArm 7.362003 -0.000000 -5.466794
LeftHand -11.496059 -0.000000 -3.144898
LeftHandThumb1 -26.253704 0.000000 33.147579
Head 6.887891 52.625710 -39.263106
1972
root -1.804910 31.634446 -10.868897 54.226529 -17.687075 6.955304
RightUpLeg -49.864242 6.602866 8.168370
RightLeg -6.556572 -0.000000 0.000000
RightFoot -5.490833 4.244832 10.143611
RightToeBase 20.566857 -0.000000 -0.000000
LeftUpLeg -64.269483 -10.896829 -6.041374
LeftLeg 4.305267 -0.000000 -0.000000
LeftFoot -5.952682 7.388932 -3.912616
LeftToeBase 8.481408 -0.000000 -0.000000
Spine -33.518528 -26.793327 -28.616359
RightShoulder -26.083059 22.888335 -80.276811
RightArm 2.158218 -15.511522 1.073917
RightForeArm 30.016277 -0.000000 -3.525203
RightHand 14.872303 -0.000000 0.012167
RightHandThumb1 -24.326973 -0.000000 -32.862282
LeftShoulder -7.067005 5.788424 -0.682156
LeftArm 23.192451 25.776502 -64.611282
LeftForeArm 7.321483 -0.000000 -5.435363
LeftHand -11.479874 -0.000000 -3.226614
LeftHandThumb1 -26.253704 0.000000 33.147579
Head 6.833360 52.558685 -39.214080
1973
root -1.801808 31.636381 -10.883351 54.238254 -17.746969 6.935513
RightUpLeg -49.876693 6.586429 8.177359
RightLeg -6.581334 -0.000000 0.000000
RightFoot -5.586571 4.251741 10.940820
RightToeBase 20.990158 -0.000000 -0.000000
LeftUpLeg -64.302408 -10.867198 -6.046093
LeftLeg 4.311623 -0.000000 -0.000000
LeftFoot -6.023025 7.503262 -4.002324
LeftToeBase 8.322968 -0.000000 -0.000000
Spine -33.497479 -26.763725 -28.617816
RightShoulder -26.075547 22.947623 -80.273810
RightArm 2.290420 -15.623890 1.132856
RightForeArm 30.028277 -0.000000 -3.457735
RightHand 14.774025 0.000000 0.030854
RightHandThumb1 -24.326973 -0.000000 -32.862282
LeftShoulder -7.049331 5.808651 -0.657472
LeftArm 23.266591 25.809032 -64.573319
LeftForeArm 7.258997 -0.000000 -5.426652
LeftHand -11.467792 -0.000000 -3.246497
LeftHandThumb1 -26.253704 0.000000 33.147579
Head 6.787674 52.488405 -39.155281
1974
root -1.792502 31.638691 -10.900841 54.284508 -17.835812 6.916260
RightUpLeg -49.945738 6.573341 8.163113
RightLeg -6.589355 -0.000000 0.000000
RightFoot -5.675041 4.272489 11.804643
RightToeBase 21.328966 -0.000000 -0.000000
LeftUpLeg -64.380109 -10.834824 -6.074405
LeftLeg 4.326690 -0.000000 -0.000000
LeftFoot -6.109323 7.632686 -4.042743
LeftToeBase 8.087025 -0.000000 -0.000000
Spine -33.509167 -26.715941 -28.614897
RightShoulder -25.839991 22.692971 -80.055682
RightArm 2.110519 -15.160881 1.158083
RightForeArm 29.785018 -0.000000 -3.158521
RightHand 14.712660 -0.000000 -0.116648
RightHandThumb1 -24.326973 -0.000000 -32.862282
LeftShoulder -7.017347 5.818350 -0.652329
LeftArm 23.335762 25.808563 -64.545615
LeftForeArm 7.232441 -0.000000 -5.412161
LeftHand -11.492166 -0.000000 -3.191796
LeftHandThumb1 -26.253704 0.000000 33.147579
Head 6.761964 52.415755 -39.096560
1975
root -1.791814 31.641009 -10.911712 54.286907 -17.917384 6.883596
RightUpLeg -49.919456 6.517925 8.238669
RightLeg -6.629329 -0.000000 0.000000
RightFoot -5.749158 4.432216 12.838284
RightToeBase 21.811347 -0.000000 -0.000000
LeftUpLeg -64.379641 -10.777469 -6.103214
LeftLeg 4.316073 -0.000000 -0.000000
LeftFoot -6.193898 7.744204 -4.062494
LeftToeBase 8.015303 -0.000000 -0.000000
Spine -33.504109 -26.672268 -28.627866
RightShoulder -25.883294 22.856026 -80.157691
RightArm 2.300677 -15.360221 1.291251
RightForeArm 29.779607 -0.000000 -3.159360
RightHand 14.812499 -0.000000 -0.156456
RightHandThumb1 -24.326973 -0.000000 -32.862282
LeftShoulder -7.011523 5.854478 -0.621451
LeftArm 23.391071 25.771416 -64.537088
LeftForeArm 7.232559 0.000000 -5.394655
LeftHand -11.511717 -0.000000 -3.006014
LeftHandThumb1 -26.253704 0.000000 33.147579
Head 6.801749 52.345035 -38.960162
